# xmcd
#
# Track frame offsets: 
#        150
#        24267
#        33605
#        56437
#        80702
#        97370
#        119137
#        137432
#        151162
#        185472
#        211292
#
# Disc length: 3078 seconds
#
# Revision: 1
# Processed by: cddbd v1.5.1PL2 Copyright (c) Steve Scherf et al.
# Submitted via: ExactAudioCopy v0.95a5
#
DISCID=970c040b
DTITLE=Various Artist - Body and Soul Collection: Emerald Isle
DYEAR=2001
DGENRE=New Age
TTITLE0=Fairport Convention - Portmeirion
TTITLE1=Susan McKeown - A Mhaire Bhruinneal 
TTITLE2=Bachue - Walk
TTITLE3=Gerald Trimble - Christina Marie
TTITLE4=Trapezoid - Moon Run
TTITLE5=The Kells - Musical Priest
TTITLE6=Derek Bell - New Dawn
TTITLE7=Maev - I'm A Doun
TTITLE8=Will Millar - Haunted Kenban
TTITLE9=Relativity - Gracelands
TTITLE10=Bill Douglas - I Shall Not Live In Vain
EXTD=YEAR: 2004
EXTT0=
EXTT1=
EXTT2=
EXTT3=
EXTT4=
EXTT5=
EXTT6=
EXTT7=
EXTT8=
EXTT9=
EXTT10=
PLAYORDER=
